<svg xmlns="http://www.w3.org/2000/svg" width="100" height="100" viewBox="0 0 100 100">
  <defs>
    <pattern id="vintage-pattern" x="0" y="0" width="20" height="20" patternUnits="userSpaceOnUse">
      <!-- Decorative flourish elements -->
      <path d="M0,0 Q5,5 10,0 Q15,5 20,0 M0,10 Q5,15 10,10 Q15,15 20,10 M0,20 Q5,25 10,20 Q15,25 20,20" stroke-width="0.5" fill="none" stroke="currentColor"/>
      <path d="M0,5 Q5,0 10,5 Q15,0 20,5 M0,15 Q5,10 10,15 Q15,10 20,15" stroke-width="0.5" fill="none" stroke="currentColor"/>
      <!-- Small decorative dots -->
      <circle cx="10" cy="10" r="0.5" fill="currentColor"/>
      <circle cx="0" cy="0" r="0.5" fill="currentColor"/>
      <circle cx="20" cy="0" r="0.5" fill="currentColor"/>
      <circle cx="0" cy="20" r="0.5" fill="currentColor"/>
      <circle cx="20" cy="20" r="0.5" fill="currentColor"/>
    </pattern>
  </defs>
  <rect width="100%" height="100%" fill="url(#vintage-pattern)"/>
</svg>